# xmcd
#
# Track frame offsets:
#	150
#	9213
#	18650
#	29327
#	37509
#	47561
#	57692
#	68771
#	81192
#	92059
#	101814
#	113936
#	123014
#	132541
#	148729
#
# Disc length: 2105 seconds
#
# Revision: 1
# Processed by: cddbd v1.5.2PL0 Copyright (c) Steve Scherf et al.
# Submitted via: audiograbber 1.83.01
#
DISCID=c608370f
DTITLE=Billy Vaughn - Greatest Hits CD1
DYEAR=2006
DGENRE=Blues
TTITLE0=Sail Along Silv'ry Moon
TTITLE1=Wheels
TTITLE2=My Sweet Lord
TTITLE3=Strangers In The Night
TTITLE4=Green Green Grass Of Home
TTITLE5=El Condor Pasa
TTITLE6=Love Is Blue
TTITLE7=Paloma Blanca
TTITLE8=Spanish Eyes
TTITLE9=Stranger On The Shore
TTITLE10=Sloop John B
TTITLE11=Somewhere My Love
TTITLE12=Red Roses For A Blue Lady
TTITLE13=Sweet Caroline
TTITLE14=Red Sails In The Sunset
EXTD=
EXTT0=
EXTT1=
EXTT2=
EXTT3=
EXTT4=
EXTT5=
EXTT6=
EXTT7=
EXTT8=
EXTT9=
EXTT10=
EXTT11=
EXTT12=
EXTT13=
EXTT14=
PLAYORDER=
